<svg width="14" height="17" viewBox="0 0 14 17" fill="none" xmlns="http://www.w3.org/2000/svg">
<path fill-rule="evenodd" clip-rule="evenodd" d="M7 7.66621C6.31083 7.66621 5.75 7.10538 5.75 6.41621C5.75 5.72704 6.31083 5.16621 7 5.16621C7.68916 5.16621 8.25 5.72704 8.25 6.41621C8.25 7.10538 7.68916 7.66621 7 7.66621M7 3.49954C5.39166 3.49954 4.08333 4.80788 4.08333 6.41621C4.08333 8.02454 5.39166 9.33288 7 9.33288C8.60833 9.33288 9.91666 8.02454 9.91666 6.41621C9.91666 4.80788 8.60833 3.49954 7 3.49954M6.99999 14.8716C5.60416 13.5516 1.99999 9.84579 1.99999 6.76829C1.99999 4.04746 4.24249 1.83329 6.99999 1.83329C9.75749 1.83329 12 4.04746 12 6.76829C12 9.84579 8.39583 13.5516 6.99999 14.8716M6.99999 0.166626C3.32416 0.166626 0.333328 3.12746 0.333328 6.76829C0.333328 11.3308 6.20749 16.4175 6.45749 16.6316C6.61416 16.7658 6.80666 16.8333 6.99999 16.8333C7.19333 16.8333 7.38583 16.7658 7.54249 16.6316C7.79249 16.4175 13.6667 11.3308 13.6667 6.76829C13.6667 3.12746 10.6758 0.166626 6.99999 0.166626" fill="white"/>
</svg>
