<svg width="130" height="36" viewBox="0 0 130 36" fill="none" xmlns="http://www.w3.org/2000/svg">
<path d="M54.2533 9.77142C49.7881 9.77142 46.158 13.3982 46.158 17.8594C46.158 22.3206 49.7881 25.9474 54.2533 25.9474C58.7186 25.9474 62.3487 22.3206 62.3487 17.8594C62.3487 13.3982 58.7186 9.77142 54.2533 9.77142ZM54.2533 24.3192C50.6885 24.3192 47.7877 21.4211 47.7877 17.8594C47.7877 14.2978 50.6885 11.3996 54.2533 11.3996C57.8182 11.3996 60.719 14.2978 60.719 17.8594C60.719 21.4211 57.8182 24.3192 54.2533 24.3192Z" fill="#1F8B48"/>
<path d="M88.3173 9.77142C83.8521 9.77142 80.222 13.3982 80.222 17.8594C80.222 22.3206 83.8521 25.9474 88.3173 25.9474C92.7826 25.9474 96.4126 22.3206 96.4126 17.8594C96.4126 13.3982 92.7826 9.77142 88.3173 9.77142ZM88.3173 24.3192C84.7524 24.3192 81.8516 21.4211 81.8516 17.8594C81.8516 14.2978 84.7524 11.3996 88.3173 11.3996C91.8822 11.3996 94.783 14.2978 94.783 17.8594C94.783 21.4211 91.8822 24.3192 88.3173 24.3192Z" fill="#1F8B48"/>
<path d="M76.5306 10.7202C73.4546 9.38097 69.9386 10.0485 67.5675 12.4175C64.41 15.5721 64.41 20.7009 67.5675 23.8555C69.1197 25.4063 71.1853 26.2286 73.2876 26.2286C74.3102 26.2286 75.345 26.0332 76.335 25.6343C76.7506 25.4633 76.9543 24.9912 76.7832 24.576C76.6121 24.1608 76.1394 23.9573 75.7198 24.1282C73.3079 25.1051 70.5579 24.5475 68.7164 22.7076C66.1945 20.188 66.1945 16.0931 68.7164 13.5735C70.6108 11.6808 73.422 11.1475 75.8746 12.2181C76.2861 12.3972 76.7669 12.2099 76.9461 11.7988C77.1254 11.3877 76.938 10.9074 76.5265 10.7283L76.5306 10.7202Z" fill="#1F8B48"/>
<path d="M112.277 25.1292V10.5855C112.277 10.1378 111.911 9.77142 111.463 9.77142C111.014 9.77142 110.648 10.1378 110.648 10.5855V22.4794L102.279 10.1296C102.08 9.83248 101.709 9.70223 101.367 9.80806C101.025 9.91389 100.792 10.2273 100.792 10.5855V25.1333C100.792 25.5811 101.159 25.9474 101.607 25.9474C102.055 25.9474 102.422 25.5811 102.422 25.1333V13.2394L110.79 25.5851C110.823 25.634 110.864 25.6787 110.908 25.7194C110.925 25.7317 110.941 25.7439 110.953 25.7561C110.986 25.7805 111.018 25.8049 111.055 25.8253C111.071 25.8375 111.092 25.8456 111.108 25.8538C111.149 25.8741 111.19 25.8863 111.23 25.8985C111.247 25.9026 111.263 25.9108 111.275 25.9148C111.332 25.927 111.393 25.9352 111.454 25.9352C111.528 25.9352 111.597 25.923 111.662 25.9026C111.678 25.8985 111.695 25.8945 111.711 25.8863C111.78 25.8619 111.85 25.8334 111.907 25.7927C111.911 25.7927 111.915 25.7846 111.919 25.7846C111.96 25.7561 111.996 25.7276 112.029 25.691C112.049 25.6706 112.061 25.6503 112.082 25.6299C112.098 25.6095 112.114 25.5892 112.131 25.5688C112.147 25.5444 112.159 25.52 112.171 25.4956C112.184 25.4712 112.196 25.4508 112.208 25.4264C112.22 25.402 112.224 25.3735 112.233 25.345C112.241 25.3205 112.249 25.3002 112.253 25.2758C112.261 25.2228 112.269 25.174 112.269 25.1211L112.277 25.1292Z" fill="#1F8B48"/>
<path d="M129.181 9.77142H117.924C117.476 9.77142 117.109 10.1378 117.109 10.5855C117.109 11.0333 117.476 11.3996 117.924 11.3996H122.74V25.1333C122.74 25.5811 123.107 25.9474 123.555 25.9474C124.003 25.9474 124.37 25.5811 124.37 25.1333V11.3996H129.185C129.633 11.3996 130 11.0333 130 10.5855C130 10.1378 129.633 9.77142 129.185 9.77142H129.181Z" fill="#1F8B48"/>
<path d="M39.9164 20.1061C41.9168 19.3286 43.3427 17.3911 43.3427 15.1239C43.3427 12.1728 40.939 9.7753 37.9893 9.7753H32.6725C32.2244 9.7753 31.8577 10.1416 31.8577 10.5894V25.1372C31.8577 25.5849 32.2244 25.9513 32.6725 25.9513C33.1207 25.9513 33.4874 25.5849 33.4874 25.1372V20.4765H37.9893C38.0585 20.4765 38.1237 20.4684 38.193 20.4643L41.8556 25.8699C42.0145 26.1019 42.2712 26.2281 42.532 26.2281C42.6908 26.2281 42.8497 26.1833 42.9883 26.0897C43.3631 25.8373 43.4568 25.3326 43.2083 24.9581L39.9245 20.1102L39.9164 20.1061ZM33.4833 11.3994H37.9852C40.0386 11.3994 41.709 13.0683 41.709 15.1198C41.709 17.1713 40.0386 18.8402 37.9852 18.8402H33.4833V11.3994Z" fill="#1F8B48"/>
<path d="M23.1866 12.8694L1.35758 0.124284C0.754495 -0.228738 0 0.212539 0 0.915987V26.4088C0 27.1123 0.754495 27.5536 1.35758 27.2005L23.184 14.4554C23.7871 14.1024 23.7871 13.2224 23.184 12.8694H23.1866Z" fill="#1F8B48"/>
<path d="M2.87425 30.3078L12.4055 35.8757C13.0086 36.2287 13.7631 35.7875 13.7631 35.084V23.9508C13.7631 23.2474 13.0086 22.8061 12.4055 23.1591L2.87425 28.727C2.27117 29.08 2.27117 29.96 2.87425 30.313V30.3078Z" fill="#1F8B48"/>
</svg>
