<svg width="18" height="15" viewBox="0 0 18 15" fill="none" xmlns="http://www.w3.org/2000/svg">
<path fill-rule="evenodd" clip-rule="evenodd" d="M14.8333 12.5H3.16667C2.70751 12.5 2.33334 12.1267 2.33334 11.6667V3.54171L8.5 8.16671C8.64834 8.27837 8.82417 8.33337 9 8.33337C9.17584 8.33337 9.35167 8.27837 9.50001 8.16671L15.6667 3.54171V11.6667C15.6667 12.1267 15.2925 12.5 14.8333 12.5V12.5ZM14.2775 2.50004L9.00001 6.45837L3.72251 2.50004H14.2775ZM14.8333 0.833374H3.16667C1.78834 0.833374 0.666672 1.95504 0.666672 3.33337V11.6667C0.666672 13.045 1.78834 14.1667 3.16667 14.1667H14.8333C16.2117 14.1667 17.3333 13.045 17.3333 11.6667V3.33337C17.3333 1.95504 16.2117 0.833374 14.8333 0.833374V0.833374Z" fill="white"/>
</svg>
