<svg width="18" height="17" viewBox="0 0 18 17" fill="none" xmlns="http://www.w3.org/2000/svg">
<path fill-rule="evenodd" clip-rule="evenodd" d="M4.50008 1.83329C3.30508 1.83329 2.33341 2.80496 2.33341 3.99996C2.33341 10.1566 7.34258 15.1666 13.5001 15.1666C14.6942 15.1666 15.6667 14.195 15.6667 13C15.6667 12.9075 15.6609 12.8166 15.6492 12.7266L11.7992 11.8433C11.7226 11.99 11.6384 12.1491 11.5617 12.2975C11.1817 13.0225 10.9067 13.5491 10.2051 13.2666C7.45008 12.3 5.20091 10.05 4.22175 7.26163C3.92425 6.60746 4.49091 6.31079 5.20925 5.93579C5.35508 5.85913 5.51258 5.77663 5.65675 5.70163L4.77341 1.85079C4.68091 1.83913 4.59091 1.83329 4.50008 1.83329M13.5001 16.8333C6.42341 16.8333 0.666748 11.0766 0.666748 3.99996C0.666748 1.88579 2.38591 0.166626 4.50008 0.166626C4.71675 0.166626 4.93091 0.184959 5.13841 0.220793C5.34091 0.253293 5.54425 0.304959 5.74258 0.373293C6.01341 0.467459 6.21758 0.694959 6.28175 0.974959L7.42258 5.94496C7.48591 6.21829 7.40675 6.50496 7.21175 6.70829C7.09841 6.82663 7.09591 6.82913 6.06258 7.36996C6.89925 9.18163 8.35341 10.6308 10.1284 11.4391C10.6701 10.405 10.6734 10.4016 10.7917 10.2883C10.9951 10.0933 11.2834 10.0175 11.5551 10.0775L16.5259 11.2183C16.8051 11.2825 17.0326 11.4858 17.1259 11.7566C17.1942 11.9533 17.2459 12.1566 17.2801 12.3658C17.3151 12.5716 17.3334 12.785 17.3334 13C17.3334 15.1141 15.6134 16.8333 13.5001 16.8333" fill="white"/>
</svg>
