<svg width="1400" height="2190" viewBox="0 0 1400 2190" fill="none" xmlns="http://www.w3.org/2000/svg">
<g opacity="0.03">
<path d="M290.034 910.351C243.727 929.74 226.139 977.27 256.406 1004.4C318.675 1060.24 575.029 1032.66 587.091 994.809C598.973 957.522 386.662 869.882 290.034 910.351Z" stroke="#2E2D2B" stroke-width="2" stroke-miterlimit="10"/>
<path d="M404.777 786.165C510.551 749.114 688.157 1012.91 614.846 1075.19C569.772 1113.48 460.657 1108.7 371.674 1096.11C288.14 1084.3 168.78 1036 139.332 955.774C123.739 913.187 133.099 852.511 166.123 831.262C191.681 814.821 226.184 822.218 233.795 819.484C270.081 834.535 275.406 840.385 304.316 843.915C342.103 848.533 375.687 796.352 404.777 786.165Z" stroke="#2E2D2B" stroke-width="2" stroke-miterlimit="10"/>
<path d="M512.098 656.419C634.944 676.032 768.44 1061.33 635.18 1150.01C550.311 1206.48 402.355 1181.54 299.226 1151.69C204.494 1124.26 46.7511 1032.75 14.8372 901.587C-3.71477 825.378 18.8279 718.17 83.4179 687.16C134.904 662.448 201.243 683.697 212.923 685.333C281.963 722.474 287.546 741.369 338.953 754.09C407.018 770.912 460.758 648.182 512.098 656.419Z" stroke="#2E2D2B" stroke-width="2" stroke-miterlimit="10"/>
<path d="M611.64 527.536C747.277 563.691 840.944 1110.31 647.735 1225.68C523.038 1300.13 336.196 1255.47 218.999 1208.12C112.978 1165.29 -82.485 1030.54 -117.437 848.253C-138.522 738.321 -103.335 584.816 -7.07767 543.91C70.269 511.028 169.049 544.773 184.249 552.035C290.516 602.837 291.862 643.206 365.845 665.116C464.12 694.299 540.604 508.641 611.64 527.536Z" stroke="#2E2D2B" stroke-width="2" stroke-miterlimit="10"/>
<path d="M705.196 404.515C855.405 456.673 907.216 1164.6 654.304 1307.22C489.611 1399.27 263.961 1335.37 132.797 1270.43C15.3641 1212.3 -217.573 1034.31 -255.742 800.779C-279.203 657.226 -231.529 457.368 -103.593 406.499C-0.340645 365.48 130.095 413.593 149.566 424.565C286.548 501.76 290.091 551.071 386.628 582.014C515.136 623.559 615.283 373.303 705.196 404.515Z" stroke="#2E2D2B" stroke-width="2" stroke-miterlimit="10"/>
<path d="M-204.312 270.724C-75.1988 221.58 86.8145 283.993 110.68 298.742C278.007 402.162 284.194 460.204 403.252 500.471C562.014 554.165 686.419 238.671 794.469 283.052C960.439 351.225 969.755 1221.36 656.59 1390.32C452.249 1500.57 187.354 1416.92 42.3009 1334.29C-86.5205 1260.91 -356.763 1039.7 -398.239 754.874C-424.021 577.711 -363.948 331.478 -204.312 270.724Z" stroke="#2E2D2B" stroke-width="2" stroke-miterlimit="10"/>
<path d="M1192.82 181.066C1141.96 180.64 1080.97 92.4509 1126.58 77.7247C1152.92 69.2072 1222.67 82.6783 1250.06 106.65C1288.65 140.384 1227.81 181.369 1192.82 181.066Z" stroke="#2E2D2B" stroke-width="2" stroke-miterlimit="10"/>
<path d="M1054.6 90.0749C1059.58 78.2401 1082.88 72.984 1104.15 58.5715C1147.28 29.3208 1153.47 15.4239 1184.11 -2.21625C1196.06 -9.10867 1212.13 -18.1641 1227.82 -14.0175C1251.86 -7.66298 1257.85 19.8395 1288.36 68.277C1327.9 131.217 1342.88 147.489 1331.58 180.842C1328.95 188.597 1325.54 213.713 1306.49 229.033C1280.12 250.214 1249.2 233.852 1210.55 247.872C1164.13 264.683 1141.12 294.606 1120.97 281.382C1106.78 272.068 1106.25 246.561 1095.63 202.147C1087.53 168.312 1082.45 146.111 1072.6 128C1060.8 106.437 1049.06 103.232 1054.6 90.0749Z" stroke="#2E2D2B" stroke-width="2" stroke-miterlimit="10"/>
<path d="M976.862 114.742C977.725 93.7621 1010.68 83.6084 1037.84 53.293C1093.54 -8.89572 1067.74 -53.3323 1112.39 -98.7662C1131.33 -118.054 1161.06 -136.736 1190.85 -133.116C1233.14 -127.972 1247.34 -84.2978 1312.43 4.25024C1397.54 120.021 1433.79 142.693 1425.84 204.388C1424.22 216.963 1422.64 265.243 1389.38 294.304C1345.02 333.058 1291.85 297.8 1222.41 326.928C1144.82 359.429 1115.82 428.913 1089.65 414.534C1071.48 404.549 1078.44 364.337 1064.48 285.909C1054.59 230.165 1048.48 197.585 1028.72 170.901C1003.78 137.246 975.931 137.526 976.862 114.742Z" stroke="#2E2D2B" stroke-width="2" stroke-miterlimit="10"/>
<path d="M899.044 139.14C895.681 109.071 938.356 93.9526 971.459 47.7341C1039.61 -47.4149 980.852 -121.786 1040.59 -195.596C1066.16 -227.178 1110.01 -255.432 1153.81 -252.484C1214.51 -248.405 1236.94 -188.894 1336.52 -60.0454C1467.45 108.309 1523.84 137.952 1520.14 227.666C1519.41 245.16 1519.75 316.483 1472.3 359.339C1409.95 415.633 1334.42 361.412 1234.31 405.737C1125.47 453.927 1090.58 562.94 1058.32 547.451C1036.18 536.737 1050.36 481.867 1033.31 369.425C1021.54 291.771 1014.45 248.97 984.809 213.556C946.607 167.92 902.642 171.529 899.044 139.14Z" stroke="#2E2D2B" stroke-width="2" stroke-miterlimit="10"/>
<path d="M821.047 163.471C813.503 124.347 865.774 104.207 904.896 42.1194C985.359 -86.046 893.518 -190.06 968.623 -292.482C1000.73 -336.303 1058.82 -374.138 1116.59 -371.919C1195.75 -368.871 1226.05 -293.323 1360.39 -124.397C1536.73 96.8329 1613.47 133.368 1614.15 250.887C1614.29 273.301 1616.51 367.599 1554.92 424.307C1474.5 498.073 1376.76 424.923 1245.93 484.49C1105.81 548.303 1065.04 696.944 1026.81 680.313C1000.69 668.904 1022.1 599.33 1001.97 452.885C988.284 353.309 980.247 300.344 940.733 256.154C889.236 198.594 829.163 205.543 821.047 163.471Z" stroke="#2E2D2B" stroke-width="2" stroke-miterlimit="10"/>
<path d="M742.905 187.79C755.538 239.568 831.697 229.257 896.477 298.742C945.878 351.718 954.857 414.826 970.461 536.334C993.631 716.77 965.024 801.059 995.122 813.151C1039.37 830.937 1086.01 642.657 1257.43 563.231C1418.91 488.412 1539.08 580.647 1637.44 489.264C1713.26 418.804 1709.04 301.532 1708.06 274.086C1702.83 128.796 1605.86 85.3343 1384.1 -188.771C1215 -397.774 1176.86 -489.337 1079.19 -491.365C1007.45 -492.856 935.094 -445.416 896.477 -389.38C806.049 -258.256 931.149 -124.543 838.187 36.4933C793.135 114.529 731.146 139.622 742.905 187.79Z" stroke="#2E2D2B" stroke-width="2" stroke-miterlimit="10"/>
<path d="M1389.2 1021.16C1375.93 1014.43 1348.06 1027.39 1345.59 1047.57C1342.8 1070.47 1374.33 1089.41 1388.19 1083.52C1404.58 1076.55 1406.81 1030.06 1389.2 1021.16Z" stroke="#2E2D2B" stroke-width="2" stroke-miterlimit="10"/>
<path d="M1426.59 1142.81C1449.21 1121.66 1459.1 1082.85 1470.41 1016.33C1481.62 950.361 1479.86 903.134 1470.01 899.704C1464.64 897.855 1449.43 912.324 1436.38 922.926C1411.95 942.718 1370.14 940.521 1359.42 942.662C1320.19 950.507 1308.67 965.076 1292.27 992.982C1284.68 1005.87 1266.98 1034.45 1259.19 1068.07C1247.31 1118.98 1194.05 1134.67 1200.54 1155.08C1206 1172.12 1258.76 1176.25 1292.97 1176.74C1342.01 1177.43 1391.62 1175.47 1426.59 1142.81Z" stroke="#2E2D2B" stroke-width="2" stroke-miterlimit="10"/>
<path d="M1465.8 1199.66C1502.99 1161.87 1517.62 1098.45 1540.15 979.847C1563.04 860.67 1562.89 778.925 1551.61 775.876C1543.15 773.545 1515.74 803.009 1492.45 824.067C1448.54 863.931 1369.94 857.375 1353.74 859.93C1279.87 871.339 1261.67 898.673 1233.04 950.339C1221.11 971.856 1188.39 1024.31 1173.48 1086.25C1150.53 1181.14 1041.74 1205.99 1050.74 1241.17C1058.27 1270.46 1159.15 1274.95 1222.63 1272.55C1312.27 1269.06 1402.97 1263.55 1465.8 1199.66Z" stroke="#2E2D2B" stroke-width="2" stroke-miterlimit="10"/>
<path d="M1504.8 1256.15C1556.58 1201.73 1575.78 1113.65 1609.66 942.998C1644.06 770.575 1645.66 654.502 1633 651.611C1621.39 648.921 1581.81 693.302 1548.34 724.872C1485.06 784.909 1369.57 773.87 1347.88 776.762C1239.39 791.242 1214.41 831.733 1173.62 907.269C1157.35 937.406 1109.63 1013.74 1087.58 1103.97C1053.6 1242.85 889.269 1276.83 900.759 1326.79C910.355 1368.34 1059.39 1373.38 1152.11 1367.87C1282.32 1360.53 1414.26 1351.32 1504.8 1256.15Z" stroke="#2E2D2B" stroke-width="2" stroke-miterlimit="10"/>
<path d="M1543.68 1312.6C1610.08 1241.55 1633.84 1128.8 1679.06 906.104C1725.02 680.458 1728.38 530.091 1714.28 527.301C1699.53 524.353 1647.75 583.471 1604.12 625.577C1521.35 705.652 1369.1 690.242 1341.92 693.548C1198.81 710.908 1166.85 764.658 1114.1 864.144C1093.41 902.876 1030.76 1003.11 1001.59 1121.64C956.55 1304.5 736.672 1347.62 750.684 1412.37C762.331 1466.16 959.509 1471.53 1081.49 1463.17C1252.23 1451.66 1425.47 1439.1 1543.68 1312.6Z" stroke="#2E2D2B" stroke-width="2" stroke-miterlimit="10"/>
<path d="M1335.9 610.301C1158.19 630.474 1119.55 697.718 1054.53 820.997C1029.54 868.392 951.83 992.467 915.534 1139.28C859.485 1366.14 584.03 1418.4 600.542 1497.91C614.263 1564.03 859.575 1569.64 1010.82 1558.43C1222.14 1542.74 1436.66 1526.85 1582.51 1369.03C1663.54 1281.33 1691.84 1143.95 1748.41 869.188C1805.84 590.308 1810.96 405.681 1795.49 402.968C1777.56 399.83 1713.66 473.574 1659.85 526.247C1557.58 626.35 1368.58 606.592 1335.9 610.301Z" stroke="#2E2D2B" stroke-width="2" stroke-miterlimit="10"/>
<path d="M-109.029 71.2356C-88.8521 148.565 55.9767 112.243 228.381 286.414C290.158 348.826 331.578 414.108 413.341 424.262C421.591 425.282 503.5 434.236 561.308 381.675C634.037 315.552 589.646 223.821 674.526 95.8914C705.79 48.7651 710.991 62.4492 733.937 25.2861C831.865 -133.352 682.507 -294.399 768.687 -455.502C808.358 -529.66 867.332 -546.684 861.727 -556.367C837.537 -597.912 -163.553 -137.14 -109.029 71.2356Z" stroke="#2E2D2B" stroke-width="2" stroke-miterlimit="10"/>
<path d="M435.76 318.545C440.715 317.872 494.723 321.907 531.771 284.744C578.616 237.819 545.222 173.21 598.894 85.9843C618.646 53.8645 621.392 62.5725 635.449 37.1658C695.421 -71.2525 587.786 -180.321 640.493 -286.453C664.886 -335.585 703.391 -346.849 697.663 -351.645C671.757 -373.522 10.9811 -50.34 62.8819 90.2878C82.3418 143.029 188.576 124.313 310.133 237.909C354.333 279.185 384.263 325.527 435.76 318.545Z" stroke="#2E2D2B" stroke-width="2" stroke-miterlimit="10"/>
<path d="M458.179 212.816C459.592 209.263 486.002 209.342 502.233 187.813C523.308 159.884 500.866 122.677 523.263 76.0883C531.479 58.9861 531.816 62.6397 536.972 49.0454C559.111 -9.42249 492.974 -66.1757 512.311 -117.415C521.357 -141.533 538.171 -145.646 533.688 -146.935C500.911 -142.284 186.188 36.7735 234.737 109.34C253.693 137.694 321.545 136.338 391.829 189.404C418.542 209.577 436.029 224.348 458.179 212.816Z" stroke="#2E2D2B" stroke-width="2" stroke-miterlimit="10"/>
<path d="M480.599 107.099C463.201 56.274 394.71 38.9925 369.623 57.787C332.631 85.536 364.186 121.668 406.615 128.392C438.327 133.379 500.507 165.264 480.599 107.099Z" stroke="#2E2D2B" stroke-width="2" stroke-miterlimit="10"/>
</g>
<g opacity="0.03">
<path d="M290.034 2194.65C243.727 2175.26 226.139 2127.73 256.406 2100.6C318.675 2044.76 575.029 2072.34 587.091 2110.19C598.973 2147.48 386.662 2235.12 290.034 2194.65Z" stroke="#2E2D2B" stroke-width="2" stroke-miterlimit="10"/>
<path d="M404.777 2318.84C510.551 2355.89 688.157 2092.09 614.846 2029.81C569.772 1991.52 460.657 1996.3 371.674 2008.89C288.14 2020.7 168.78 2069 139.332 2149.23C123.739 2191.81 133.099 2252.49 166.123 2273.74C191.681 2290.18 226.184 2282.78 233.795 2285.52C270.081 2270.47 275.406 2264.62 304.316 2261.08C342.103 2256.47 375.687 2308.65 404.777 2318.84Z" stroke="#2E2D2B" stroke-width="2" stroke-miterlimit="10"/>
<path d="M512.098 2448.58C634.944 2428.97 768.44 2043.67 635.18 1954.99C550.311 1898.52 402.355 1923.46 299.226 1953.31C204.494 1980.74 46.7511 2072.25 14.8372 2203.41C-3.71477 2279.62 18.8279 2386.83 83.4179 2417.84C134.904 2442.55 201.243 2421.3 212.923 2419.67C281.963 2382.53 287.546 2363.63 338.953 2350.91C407.018 2334.09 460.758 2456.82 512.098 2448.58Z" stroke="#2E2D2B" stroke-width="2" stroke-miterlimit="10"/>
<path d="M611.64 2577.46C747.277 2541.31 840.944 1994.69 647.735 1879.32C523.038 1804.87 336.196 1849.53 218.999 1896.88C112.978 1939.71 -82.485 2074.46 -117.437 2256.75C-138.522 2366.68 -103.335 2520.18 -7.07767 2561.09C70.269 2593.97 169.049 2560.23 184.249 2552.96C290.516 2502.16 291.862 2461.79 365.845 2439.88C464.12 2410.7 540.604 2596.36 611.64 2577.46Z" stroke="#2E2D2B" stroke-width="2" stroke-miterlimit="10"/>
<path d="M705.196 2700.48C855.405 2648.33 907.216 1940.4 654.304 1797.78C489.611 1705.73 263.961 1769.63 132.797 1834.57C15.3641 1892.7 -217.573 2070.69 -255.742 2304.22C-279.203 2447.77 -231.529 2647.63 -103.593 2698.5C-0.340645 2739.52 130.095 2691.41 149.566 2680.44C286.548 2603.24 290.091 2553.93 386.628 2522.99C515.136 2481.44 615.283 2731.7 705.196 2700.48Z" stroke="#2E2D2B" stroke-width="2" stroke-miterlimit="10"/>
<path d="M-204.312 2834.28C-75.1988 2883.42 86.8145 2821.01 110.68 2806.26C278.007 2702.84 284.194 2644.8 403.252 2604.53C562.014 2550.84 686.419 2866.33 794.469 2821.95C960.439 2753.78 969.755 1883.64 656.59 1714.68C452.249 1604.43 187.354 1688.08 42.3009 1770.71C-86.5205 1844.09 -356.763 2065.3 -398.239 2350.13C-424.021 2527.29 -363.948 2773.52 -204.312 2834.28Z" stroke="#2E2D2B" stroke-width="2" stroke-miterlimit="10"/>
<path d="M1192.82 2923.93C1141.96 2924.36 1080.97 3012.55 1126.58 3027.28C1152.92 3035.79 1222.67 3022.32 1250.06 2998.35C1288.65 2964.62 1227.81 2923.63 1192.82 2923.93Z" stroke="#2E2D2B" stroke-width="2" stroke-miterlimit="10"/>
<path d="M1054.6 3014.93C1059.58 3026.76 1082.88 3032.02 1104.15 3046.43C1147.28 3075.68 1153.47 3089.58 1184.11 3107.22C1196.06 3114.11 1212.13 3123.16 1227.82 3119.02C1251.86 3112.66 1257.85 3085.16 1288.36 3036.72C1327.9 2973.78 1342.88 2957.51 1331.58 2924.16C1328.95 2916.4 1325.54 2891.29 1306.49 2875.97C1280.12 2854.79 1249.2 2871.15 1210.55 2857.13C1164.13 2840.32 1141.12 2810.39 1120.97 2823.62C1106.78 2832.93 1106.25 2858.44 1095.63 2902.85C1087.53 2936.69 1082.45 2958.89 1072.6 2977C1060.8 2998.56 1049.06 3001.77 1054.6 3014.93Z" stroke="#2E2D2B" stroke-width="2" stroke-miterlimit="10"/>
<path d="M976.862 2990.26C977.725 3011.24 1010.68 3021.39 1037.84 3051.71C1093.54 3113.9 1067.74 3158.33 1112.39 3203.77C1131.33 3223.05 1161.06 3241.74 1190.85 3238.12C1233.14 3232.97 1247.34 3189.3 1312.43 3100.75C1397.54 2984.98 1433.79 2962.31 1425.84 2900.61C1424.22 2888.04 1422.64 2839.76 1389.38 2810.7C1345.02 2771.94 1291.85 2807.2 1222.41 2778.07C1144.82 2745.57 1115.82 2676.09 1089.65 2690.47C1071.48 2700.45 1078.44 2740.66 1064.48 2819.09C1054.59 2874.84 1048.48 2907.41 1028.72 2934.1C1003.78 2967.75 975.931 2967.47 976.862 2990.26Z" stroke="#2E2D2B" stroke-width="2" stroke-miterlimit="10"/>
<path d="M899.044 2965.86C895.681 2995.93 938.356 3011.05 971.459 3057.27C1039.61 3152.41 980.852 3226.79 1040.59 3300.6C1066.16 3332.18 1110.01 3360.43 1153.81 3357.48C1214.51 3353.4 1236.94 3293.89 1336.52 3165.05C1467.45 2996.69 1523.84 2967.05 1520.14 2877.33C1519.41 2859.84 1519.75 2788.52 1472.3 2745.66C1409.95 2689.37 1334.42 2743.59 1234.31 2699.26C1125.47 2651.07 1090.58 2542.06 1058.32 2557.55C1036.18 2568.26 1050.36 2623.13 1033.31 2735.57C1021.54 2813.23 1014.45 2856.03 984.809 2891.44C946.607 2937.08 902.642 2933.47 899.044 2965.86Z" stroke="#2E2D2B" stroke-width="2" stroke-miterlimit="10"/>
<path d="M821.047 2941.53C813.503 2980.65 865.774 3000.79 904.896 3062.88C985.359 3191.05 893.518 3295.06 968.623 3397.48C1000.73 3441.3 1058.82 3479.14 1116.59 3476.92C1195.75 3473.87 1226.05 3398.32 1360.39 3229.4C1536.73 3008.17 1613.47 2971.63 1614.15 2854.11C1614.29 2831.7 1616.51 2737.4 1554.92 2680.69C1474.5 2606.93 1376.76 2680.08 1245.93 2620.51C1105.81 2556.7 1065.04 2408.06 1026.81 2424.69C1000.69 2436.1 1022.1 2505.67 1001.97 2652.11C988.284 2751.69 980.247 2804.66 940.733 2848.85C889.236 2906.41 829.163 2899.46 821.047 2941.53Z" stroke="#2E2D2B" stroke-width="2" stroke-miterlimit="10"/>
<path d="M742.905 2917.21C755.538 2865.43 831.697 2875.74 896.477 2806.26C945.878 2753.28 954.857 2690.17 970.461 2568.67C993.631 2388.23 965.024 2303.94 995.122 2291.85C1039.37 2274.06 1086.01 2462.34 1257.43 2541.77C1418.91 2616.59 1539.08 2524.35 1637.44 2615.74C1713.26 2686.2 1709.04 2803.47 1708.06 2830.91C1702.83 2976.2 1605.86 3019.67 1384.1 3293.77C1215 3502.77 1176.86 3594.34 1079.19 3596.37C1007.45 3597.86 935.094 3550.42 896.477 3494.38C806.049 3363.26 931.149 3229.54 838.187 3068.51C793.135 2990.47 731.146 2965.38 742.905 2917.21Z" stroke="#2E2D2B" stroke-width="2" stroke-miterlimit="10"/>
<path d="M1389.2 2083.84C1375.93 2090.57 1348.06 2077.61 1345.59 2057.43C1342.8 2034.53 1374.33 2015.59 1388.19 2021.48C1404.58 2028.45 1406.81 2074.94 1389.2 2083.84Z" stroke="#2E2D2B" stroke-width="2" stroke-miterlimit="10"/>
<path d="M1426.59 1962.19C1449.21 1983.34 1459.1 2022.15 1470.41 2088.67C1481.62 2154.64 1479.86 2201.87 1470.01 2205.3C1464.64 2207.14 1449.43 2192.68 1436.38 2182.07C1411.95 2162.28 1370.14 2164.48 1359.42 2162.34C1320.19 2154.49 1308.67 2139.92 1292.27 2112.02C1284.68 2099.13 1266.98 2070.55 1259.19 2036.93C1247.31 1986.02 1194.05 1970.33 1200.54 1949.92C1206 1932.88 1258.76 1928.75 1292.97 1928.26C1342.01 1927.57 1391.62 1929.53 1426.59 1962.19Z" stroke="#2E2D2B" stroke-width="2" stroke-miterlimit="10"/>
<path d="M1465.8 1905.34C1502.99 1943.13 1517.62 2006.55 1540.15 2125.15C1563.04 2244.33 1562.89 2326.08 1551.61 2329.12C1543.15 2331.45 1515.74 2301.99 1492.45 2280.93C1448.54 2241.07 1369.94 2247.63 1353.74 2245.07C1279.87 2233.66 1261.67 2206.33 1233.04 2154.66C1221.11 2133.14 1188.39 2080.69 1173.48 2018.75C1150.53 1923.86 1041.74 1899.01 1050.74 1863.83C1058.27 1834.54 1159.15 1830.05 1222.63 1832.45C1312.27 1835.94 1402.97 1841.45 1465.8 1905.34Z" stroke="#2E2D2B" stroke-width="2" stroke-miterlimit="10"/>
<path d="M1504.8 1848.85C1556.58 1903.27 1575.78 1991.35 1609.66 2162C1644.06 2334.42 1645.66 2450.5 1633 2453.39C1621.39 2456.08 1581.81 2411.7 1548.34 2380.13C1485.06 2320.09 1369.57 2331.13 1347.88 2328.24C1239.39 2313.76 1214.41 2273.27 1173.62 2197.73C1157.35 2167.59 1109.63 2091.26 1087.58 2001.03C1053.6 1862.15 889.269 1828.17 900.759 1778.21C910.355 1736.66 1059.39 1731.62 1152.11 1737.13C1282.32 1744.47 1414.26 1753.68 1504.8 1848.85Z" stroke="#2E2D2B" stroke-width="2" stroke-miterlimit="10"/>
<path d="M1543.68 1792.4C1610.08 1863.45 1633.84 1976.2 1679.06 2198.9C1725.02 2424.54 1728.38 2574.91 1714.28 2577.7C1699.53 2580.65 1647.75 2521.53 1604.12 2479.42C1521.35 2399.35 1369.1 2414.76 1341.92 2411.45C1198.81 2394.09 1166.85 2340.34 1114.1 2240.86C1093.41 2202.12 1030.76 2101.89 1001.59 1983.36C956.55 1800.5 736.672 1757.38 750.684 1692.63C762.331 1638.84 959.509 1633.47 1081.49 1641.83C1252.23 1653.34 1425.47 1665.9 1543.68 1792.4Z" stroke="#2E2D2B" stroke-width="2" stroke-miterlimit="10"/>
<path d="M1335.9 2494.7C1158.19 2474.53 1119.55 2407.28 1054.53 2284C1029.54 2236.61 951.83 2112.53 915.534 1965.72C859.485 1738.86 584.03 1686.6 600.542 1607.09C614.263 1540.97 859.575 1535.36 1010.82 1546.57C1222.14 1562.26 1436.66 1578.15 1582.51 1735.97C1663.54 1823.67 1691.84 1961.05 1748.41 2235.81C1805.84 2514.69 1810.96 2699.32 1795.49 2702.03C1777.56 2705.17 1713.66 2631.43 1659.85 2578.75C1557.58 2478.65 1368.58 2498.41 1335.9 2494.7Z" stroke="#2E2D2B" stroke-width="2" stroke-miterlimit="10"/>
<path d="M-109.029 3033.76C-88.8521 2956.43 55.9767 2992.76 228.381 2818.59C290.158 2756.17 331.578 2690.89 413.341 2680.74C421.591 2679.72 503.5 2670.76 561.308 2723.33C634.037 2789.45 589.646 2881.18 674.526 3009.11C705.79 3056.23 710.991 3042.55 733.937 3079.71C831.865 3238.35 682.507 3399.4 768.687 3560.5C808.358 3634.66 867.332 3651.68 861.727 3661.37C837.537 3702.91 -163.553 3242.14 -109.029 3033.76Z" stroke="#2E2D2B" stroke-width="2" stroke-miterlimit="10"/>
<path d="M435.76 2786.46C440.715 2787.13 494.723 2783.09 531.771 2820.26C578.616 2867.18 545.222 2931.79 598.894 3019.02C618.646 3051.14 621.392 3042.43 635.449 3067.83C695.421 3176.25 587.786 3285.32 640.493 3391.45C664.886 3440.59 703.391 3451.85 697.663 3456.65C671.757 3478.52 10.9811 3155.34 62.8819 3014.71C82.3418 2961.97 188.576 2980.69 310.133 2867.09C354.333 2825.81 384.263 2779.47 435.76 2786.46Z" stroke="#2E2D2B" stroke-width="2" stroke-miterlimit="10"/>
<path d="M458.179 2892.18C459.592 2895.74 486.002 2895.66 502.233 2917.19C523.308 2945.12 500.866 2982.32 523.263 3028.91C531.479 3046.01 531.816 3042.36 536.972 3055.95C559.111 3114.42 492.974 3171.18 512.311 3222.41C521.357 3246.53 538.171 3250.65 533.688 3251.93C500.911 3247.28 186.188 3068.23 234.737 2995.66C253.693 2967.31 321.545 2968.66 391.829 2915.6C418.542 2895.42 436.029 2880.65 458.179 2892.18Z" stroke="#2E2D2B" stroke-width="2" stroke-miterlimit="10"/>
<path d="M480.599 2997.9C463.201 3048.73 394.71 3066.01 369.623 3047.21C332.631 3019.46 364.186 2983.33 406.615 2976.61C438.327 2971.62 500.507 2939.74 480.599 2997.9Z" stroke="#2E2D2B" stroke-width="2" stroke-miterlimit="10"/>
</g>
</svg>
