<svg width="18" height="17" viewBox="0 0 18 17" fill="none" xmlns="http://www.w3.org/2000/svg">
<path fill-rule="evenodd" clip-rule="evenodd" d="M12.3333 7.66663H9.83334V5.16663C9.83334 4.70579 9.46001 4.33329 9.00001 4.33329C8.54001 4.33329 8.16667 4.70579 8.16667 5.16663V8.49996C8.16667 8.96079 8.54001 9.33329 9.00001 9.33329H12.3333C12.7942 9.33329 13.1667 8.96079 13.1667 8.49996C13.1667 8.03913 12.7942 7.66663 12.3333 7.66663M9 15.1666C5.32417 15.1666 2.33334 12.1758 2.33334 8.49996C2.33334 4.82413 5.32417 1.83329 9 1.83329C12.6758 1.83329 15.6667 4.82413 15.6667 8.49996C15.6667 12.1758 12.6758 15.1666 9 15.1666M9.00001 0.166626C4.40501 0.166626 0.666672 3.90496 0.666672 8.49996C0.666672 13.095 4.40501 16.8333 9.00001 16.8333C13.595 16.8333 17.3333 13.095 17.3333 8.49996C17.3333 3.90496 13.595 0.166626 9.00001 0.166626" fill="white"/>
</svg>
